<svg width="20" height="20" viewBox="0 0 20 20" fill="none" xmlns="http://www.w3.org/2000/svg">
<path d="M15 6.66667C15 3.90834 12.7584 1.66667 10 1.66667C7.24169 1.66667 5.00002 3.90834 5.00002 6.66667C5.00002 10.4167 10 15.8333 10 15.8333C10 15.8333 15 10.4167 15 6.66667ZM8.33335 6.66667C8.33335 5.75 9.08335 5.00001 10 5.00001C10.9167 5.00001 11.6667 5.75 11.6667 6.66667C11.6667 7.1087 11.4911 7.53262 11.1785 7.84518C10.866 8.15774 10.442 8.33334 10 8.33334C9.55799 8.33334 9.13407 8.15774 8.82151 7.84518C8.50895 7.53262 8.33335 7.1087 8.33335 6.66667ZM4.16669 16.6667V18.3333H15.8334V16.6667H4.16669Z" fill="#F49B33"/>
</svg>
